<?xml version="1.0" encoding="UTF-8"?>
<svg version="1.1" xmlns="http://www.w3.org/2000/svg" width="96" height="96">
<path d="M0 0 C2.77555088 1.45158121 4.78591123 2.78591123 7 5 C7.4375 7.375 7.4375 7.375 7 10 C4.05946684 12.97110003 1.06813787 14.43753463 -2.7734375 15.890625 C-15.9123591 21.20332961 -22.00217053 27.53181438 -27.57159424 40.23400879 C-28.48857096 42.41037415 -29.37925426 44.59497328 -30.25537109 46.78808594 C-30.67542923 47.83262688 -30.67542923 47.83262688 -31.10397339 48.89826965 C-31.86020276 50.81677486 -32.57695156 52.75070779 -33.29101562 54.68530273 C-35.3938372 58.76387539 -37.26425781 60.38068303 -41 63 C-44.3125 63.875 -44.3125 63.875 -47 64 C-47.33 63.67 -47.66 63.34 -48 63 C-47.9269148 53.91916435 -45.76949238 44.86971966 -44 36 C-45.00160156 36.40992188 -46.00320312 36.81984375 -47.03515625 37.2421875 C-48.37752807 37.786646 -49.7199803 38.33090625 -51.0625 38.875 C-51.71927734 39.14441406 -52.37605469 39.41382813 -53.05273438 39.69140625 C-59.54297539 42.31307996 -65.61085729 44.29125275 -72.6875 44.375 C-73.78449219 44.40335938 -74.88148437 44.43171875 -76.01171875 44.4609375 C-79.76993669 43.88123852 -80.73132284 43.01836962 -83 40 C-84.703125 36.7578125 -84.703125 36.7578125 -86.25 33.125 C-86.77078125 31.93132813 -87.2915625 30.73765625 -87.828125 29.5078125 C-88.97415656 26.07735802 -89.240964 23.58160134 -89 20 C-86.4375 18.75 -86.4375 18.75 -83 18 C-79.40103542 19.67538006 -76.86592462 21.10521123 -74.125 23.9375 C-71.79754312 25.39818015 -71.79754312 25.39818015 -68.2265625 23.94921875 C-62.38024554 21.88227412 -56.76284146 19.30496924 -51.1262207 16.73007202 C-49.21407328 15.85862669 -47.2981534 14.99604459 -45.38085938 14.13598633 C-39.53216064 11.5111301 -33.69614228 8.86404962 -27.890625 6.14453125 C-9.64054273 -2.26494679 -9.64054273 -2.26494679 0 0 Z " fill="#000000" transform="translate(89,21)"/>
<path d="M0 0 C-1.69104987 3.38209974 -5.43007556 4.27123084 -8.75 5.75 C-9.46671875 6.09160156 -10.1834375 6.43320312 -10.921875 6.78515625 C-16.26897324 9.17365785 -16.26897324 9.17365785 -19.74609375 8.34765625 C-20.86177734 7.68056641 -20.86177734 7.68056641 -22 7 C-22.73863281 6.63261719 -23.47726563 6.26523437 -24.23828125 5.88671875 C-26.30006142 4.69469142 -28.18947824 3.55061718 -30 2 C-30.5 -0.8125 -30.5 -0.8125 -30 -3 C-20.4709803 -9.10834596 -9.66058061 -3.44929821 0 0 Z " fill="#000000" transform="translate(48,30)"/>
</svg>
